<?xml version="1.0" encoding="UTF-8"?>
<svg xmlns="http://www.w3.org/2000/svg" xmlns:xlink="http://www.w3.org/1999/xlink" width="137px" height="100px" viewBox="0 0 136 100" version="1.1">
<defs>
<filter id="alpha" filterUnits="objectBoundingBox" x="0%" y="0%" width="100%" height="100%">
  <feColorMatrix type="matrix" in="SourceGraphic" values="0 0 0 0 1 0 0 0 0 1 0 0 0 0 1 0 0 0 1 0"/>
</filter>
<mask id="mask0">
  <g filter="url(#alpha)">
<rect x="0" y="0" width="136" height="100" style="fill:rgb(0%,0%,0%);fill-opacity:0.996078;stroke:none;"/>
  </g>
</mask>
<clipPath id="clip1">
  <rect x="0" y="0" width="136" height="100"/>
</clipPath>
<g id="surface5" clip-path="url(#clip1)">
<path style=" stroke:none;fill-rule:evenodd;fill:rgb(8.627451%,52.156863%,50.196078%);fill-opacity:1;" d="M 73.730469 -0.0625 C 82.207031 -0.0625 90.6875 -0.0625 99.167969 -0.0625 C 98.453125 2.976562 97.738281 6.011719 97.027344 9.050781 C 97.027344 9.09375 97.027344 9.136719 97.027344 9.175781 C 96.941406 9.175781 96.898438 9.21875 96.898438 9.304688 C 95.238281 11.628906 93.222656 13.589844 90.855469 15.191406 C 86.890625 17.203125 82.820312 17.433594 78.640625 15.886719 C 77.8125 15.492188 77.726562 15.597656 78.390625 16.203125 C 82.722656 20.066406 87.632812 22.957031 93.121094 24.875 C 92.546875 27.558594 91.917969 30.21875 91.234375 32.847656 C 89.652344 39.246094 87.574219 45.492188 85 51.582031 C 83.078125 56.167969 80.410156 60.238281 77.003906 63.796875 C 71.675781 68.515625 65.925781 69.066406 59.75 65.441406 C 56.160156 63.140625 52.988281 60.335938 50.246094 57.023438 C 47.347656 53.523438 44.746094 49.808594 42.4375 45.886719 C 42.339844 45.746094 42.234375 45.746094 42.121094 45.886719 C 42.121094 45.71875 42.121094 45.546875 42.121094 45.378906 C 42.246094 45.367188 42.351562 45.410156 42.4375 45.507812 C 43.863281 47.910156 45.691406 49.957031 47.914062 51.644531 C 49.855469 52.90625 51.789062 52.90625 53.707031 51.644531 C 55.15625 50.503906 56.25 49.089844 56.980469 47.40625 C 57.644531 46.285156 58.210938 45.105469 58.679688 43.859375 C 59.277344 42.144531 59.824219 40.417969 60.320312 38.671875 C 62.460938 29.808594 64.601562 20.949219 66.742188 12.089844 C 67.269531 9.285156 68.109375 6.585938 69.257812 3.988281 C 70.226562 2.023438 71.714844 0.671875 73.730469 -0.0625 Z M 73.730469 -0.0625 "/>
</g>
<mask id="mask1">
  <g filter="url(#alpha)">
<rect x="0" y="0" width="136" height="100" style="fill:rgb(0%,0%,0%);fill-opacity:0.996078;stroke:none;"/>
  </g>
</mask>
<clipPath id="clip2">
  <rect x="0" y="0" width="136" height="100"/>
</clipPath>
<g id="surface8" clip-path="url(#clip2)">
<path style=" stroke:none;fill-rule:evenodd;fill:rgb(67.058824%,67.45098%,68.627451%);fill-opacity:1;" d="M 107.730469 -0.0625 C 117.132812 -0.0625 126.535156 -0.0625 135.9375 -0.0625 C 135.9375 -0.0195312 135.9375 0.0195312 135.9375 0.0625 C 131.65625 5.085938 127.375 10.105469 123.09375 15.125 C 123.367188 14.667969 123.597656 14.203125 123.785156 13.734375 C 119.257812 18.890625 113.570312 21.949219 106.722656 22.910156 C 96.351562 24.355469 86.90625 22.035156 78.390625 15.949219 C 78.464844 15.890625 78.546875 15.871094 78.640625 15.886719 C 82.820312 17.433594 86.890625 17.203125 90.855469 15.191406 C 93.222656 13.589844 95.238281 11.628906 96.898438 9.304688 C 96.984375 9.304688 97.027344 9.261719 97.027344 9.175781 C 97.027344 9.136719 97.027344 9.09375 97.027344 9.050781 C 98.585938 6.972656 100.117188 4.863281 101.621094 2.722656 C 103.328125 1.050781 105.363281 0.121094 107.730469 -0.0625 Z M 107.730469 -0.0625 "/>
</g>
<mask id="mask2">
  <g filter="url(#alpha)">
<rect x="0" y="0" width="136" height="100" style="fill:rgb(0%,0%,0%);fill-opacity:0.996078;stroke:none;"/>
  </g>
</mask>
<clipPath id="clip3">
  <rect x="0" y="0" width="136" height="100"/>
</clipPath>
<g id="surface11" clip-path="url(#clip3)">
<path style=" stroke:none;fill-rule:evenodd;fill:rgb(95.294118%,64.313725%,10.980392%);fill-opacity:1;" d="M 135.9375 1.835938 C 135.9375 32.171875 135.9375 62.511719 135.9375 92.847656 C 129.515625 92.871094 123.09375 92.847656 116.671875 92.785156 C 113.074219 91.867188 110.953125 89.570312 110.3125 85.886719 C 110.207031 66.179688 110.226562 46.476562 110.375 26.773438 C 113.460938 25.601562 116.273438 23.976562 118.8125 21.898438 C 120.644531 20.140625 122.386719 18.304688 124.035156 16.390625 C 128.070312 11.570312 132.035156 6.714844 135.9375 1.835938 Z M 135.9375 1.835938 "/>
</g>
<mask id="mask3">
  <g filter="url(#alpha)">
<rect x="0" y="0" width="136" height="100" style="fill:rgb(0%,0%,0%);fill-opacity:0.364706;stroke:none;"/>
  </g>
</mask>
<clipPath id="clip4">
  <rect x="0" y="0" width="136" height="100"/>
</clipPath>
<g id="surface14" clip-path="url(#clip4)">
<path style=" stroke:none;fill-rule:evenodd;fill:rgb(14.509804%,60.784314%,81.960784%);fill-opacity:1;" d="M 28.523438 2.59375 C 26.707031 3.253906 25.175781 4.351562 23.925781 5.886719 C 22.992188 7.128906 22.152344 8.4375 21.40625 9.808594 C 19.683594 13.355469 18.339844 17.066406 17.378906 20.949219 C 15.929688 26.847656 14.523438 32.757812 13.160156 38.671875 C 12.949219 39.347656 12.738281 40.019531 12.53125 40.695312 C 12.363281 40.738281 12.363281 40.78125 12.53125 40.824219 C 12.558594 40.984375 12.515625 41.113281 12.402344 41.203125 C 12.328125 40.90625 12.285156 40.945312 12.277344 41.328125 C 11.972656 41.898438 11.703125 42.488281 11.460938 43.101562 C 13.054688 36.003906 14.734375 28.914062 16.496094 21.835938 C 17.613281 17.25 19.25 12.859375 21.40625 8.671875 C 22.492188 6.652344 23.941406 4.941406 25.75 3.542969 C 26.597656 2.988281 27.519531 2.671875 28.523438 2.59375 Z M 28.523438 2.59375 "/>
</g>
<mask id="mask4">
  <g filter="url(#alpha)">
<rect x="0" y="0" width="136" height="100" style="fill:rgb(0%,0%,0%);fill-opacity:0.980392;stroke:none;"/>
  </g>
</mask>
<clipPath id="clip5">
  <rect x="0" y="0" width="136" height="100"/>
</clipPath>
<g id="surface17" clip-path="url(#clip5)">
<path style=" stroke:none;fill-rule:evenodd;fill:rgb(47.45098%,47.45098%,47.843137%);fill-opacity:1;" d="M 123.09375 15.125 C 116.617188 23.886719 107.96875 27.449219 97.152344 25.824219 C 95.789062 25.585938 94.445312 25.269531 93.121094 24.875 C 87.632812 22.957031 82.722656 20.066406 78.390625 16.203125 C 77.726562 15.597656 77.8125 15.492188 78.640625 15.886719 C 78.546875 15.871094 78.464844 15.890625 78.390625 15.949219 C 86.90625 22.035156 96.351562 24.355469 106.722656 22.910156 C 113.570312 21.949219 119.257812 18.890625 123.785156 13.734375 C 123.597656 14.203125 123.367188 14.667969 123.09375 15.125 Z M 123.09375 15.125 "/>
</g>
<mask id="mask5">
  <g filter="url(#alpha)">
<rect x="0" y="0" width="136" height="100" style="fill:rgb(0%,0%,0%);fill-opacity:0.988235;stroke:none;"/>
  </g>
</mask>
<clipPath id="clip6">
  <rect x="0" y="0" width="136" height="100"/>
</clipPath>
<g id="surface20" clip-path="url(#clip6)">
<path style=" stroke:none;fill-rule:evenodd;fill:rgb(59.607843%,83.921569%,85.882353%);fill-opacity:1;" d="M 91.234375 32.847656 C 88.207031 45.730469 85.125 58.597656 81.976562 71.457031 C 80.984375 75.382812 79.640625 79.179688 77.949219 82.847656 C 76.828125 85.25 75.296875 87.339844 73.351562 89.113281 C 71.019531 90.792969 68.625 90.878906 66.175781 89.367188 C 64.113281 87.71875 62.414062 85.753906 61.074219 83.480469 C 55.679688 73.054688 50.347656 62.59375 45.082031 52.089844 C 44.023438 50.046875 43.039062 47.980469 42.121094 45.886719 C 42.234375 45.746094 42.339844 45.746094 42.4375 45.886719 C 44.746094 49.808594 47.347656 53.523438 50.246094 57.023438 C 52.988281 60.335938 56.160156 63.140625 59.75 65.441406 C 65.925781 69.066406 71.675781 68.515625 77.003906 63.796875 C 80.410156 60.238281 83.078125 56.167969 85 51.582031 C 87.574219 45.492188 89.652344 39.246094 91.234375 32.847656 Z M 91.234375 32.847656 "/>
</g>
<mask id="mask6">
  <g filter="url(#alpha)">
<rect x="0" y="0" width="136" height="100" style="fill:rgb(0%,0%,0%);fill-opacity:0.678431;stroke:none;"/>
  </g>
</mask>
<clipPath id="clip7">
  <rect x="0" y="0" width="136" height="100"/>
</clipPath>
<g id="surface23" clip-path="url(#clip7)">
<path style=" stroke:none;fill-rule:evenodd;fill:rgb(45.098039%,61.960784%,71.372549%);fill-opacity:1;" d="M 9.507812 53.355469 C 9.476562 53.519531 9.519531 53.644531 9.632812 53.734375 C 9.152344 55.523438 8.648438 57.296875 8.121094 59.050781 C 8.488281 57.113281 8.949219 55.214844 9.507812 53.355469 Z M 9.507812 53.355469 "/>
</g>
</defs>
<g id="surface1">
<use xlink:href="#surface5" mask="url(#mask0)"/>
<use xlink:href="#surface8" mask="url(#mask1)"/>
<use xlink:href="#surface11" mask="url(#mask2)"/>
<use xlink:href="#surface14" mask="url(#mask3)"/>
<path style=" stroke:none;fill-rule:evenodd;fill:rgb(42.352941%,73.333333%,84.705882%);fill-opacity:1;" d="M 28.523438 2.59375 C 29.632812 2.484375 30.683594 2.652344 31.671875 3.101562 C 31.539062 3.082031 31.410156 3.101562 31.292969 3.164062 C 32.714844 3.960938 33.953125 4.992188 35.007812 6.265625 C 35.949219 7.488281 36.832031 8.753906 37.652344 10.0625 C 41.945312 18.277344 46.101562 26.546875 50.117188 34.875 C 47.101562 30.871094 43.554688 27.433594 39.476562 24.558594 C 32.453125 20.082031 26.09375 20.863281 20.398438 26.898438 C 17.414062 30.453125 15 34.378906 13.160156 38.671875 C 14.523438 32.757812 15.929688 26.847656 17.378906 20.949219 C 18.339844 17.066406 19.683594 13.355469 21.40625 9.808594 C 22.152344 8.4375 22.992188 7.128906 23.925781 5.886719 C 25.175781 4.351562 26.707031 3.253906 28.523438 2.59375 Z M 28.523438 2.59375 "/>
<path style=" stroke:none;fill-rule:evenodd;fill:rgb(58.823529%,82.352941%,85.098039%);fill-opacity:1;" d="M 31.671875 3.101562 C 32.398438 3.402344 33.070312 3.804688 33.683594 4.304688 C 35.503906 6.003906 37.035156 7.921875 38.28125 10.0625 C 44.492188 22.300781 50.707031 34.535156 56.917969 46.773438 C 56.980469 46.980469 57 47.191406 56.980469 47.40625 C 56.789062 47.402344 56.644531 47.320312 56.539062 47.152344 C 56.316406 46.828125 56.128906 46.492188 55.972656 46.140625 C 52.398438 39.828125 47.824219 34.320312 42.25 29.621094 C 33.027344 22.765625 25.113281 24.050781 18.511719 33.480469 C 15.871094 37.480469 13.730469 41.742188 12.089844 46.265625 C 11.207031 48.734375 10.386719 51.222656 9.632812 53.734375 C 9.519531 53.644531 9.476562 53.519531 9.507812 53.355469 C 10.410156 49.339844 11.335938 45.332031 12.277344 41.328125 C 12.363281 41.328125 12.402344 41.285156 12.402344 41.203125 C 12.515625 41.113281 12.558594 40.984375 12.53125 40.824219 C 12.53125 40.78125 12.53125 40.738281 12.53125 40.695312 C 12.738281 40.019531 12.949219 39.347656 13.160156 38.671875 C 15 34.378906 17.414062 30.453125 20.398438 26.898438 C 26.09375 20.863281 32.453125 20.082031 39.476562 24.558594 C 43.554688 27.433594 47.101562 30.871094 50.117188 34.875 C 46.101562 26.546875 41.945312 18.277344 37.652344 10.0625 C 36.832031 8.753906 35.949219 7.488281 35.007812 6.265625 C 33.953125 4.992188 32.714844 3.960938 31.292969 3.164062 C 31.410156 3.101562 31.539062 3.082031 31.671875 3.101562 Z M 31.671875 3.101562 "/>
<use xlink:href="#surface17" mask="url(#mask4)"/>
<path style=" stroke:none;fill-rule:evenodd;fill:rgb(15.686275%,20.784314%,54.117647%);fill-opacity:1;" d="M 55.972656 46.140625 C 54.796875 44.46875 53.410156 42.972656 51.820312 41.644531 C 50.742188 40.808594 49.523438 40.324219 48.167969 40.191406 C 46.753906 40.351562 45.539062 40.921875 44.515625 41.898438 C 43.511719 42.921875 42.714844 44.082031 42.121094 45.378906 C 40.722656 47.976562 39.652344 50.71875 38.910156 53.609375 C 36.351562 64.15625 33.789062 74.703125 31.230469 85.253906 C 30.613281 87.871094 29.332031 90.085938 27.390625 91.898438 C 26.867188 92.3125 26.277344 92.609375 25.625 92.785156 C 17.0625 92.847656 8.5 92.871094 -0.0625 92.847656 C -0.0625 92.679688 -0.0625 92.511719 -0.0625 92.339844 C 2.457031 82.128906 4.972656 71.917969 7.492188 61.707031 C 7.796875 60.859375 8.007812 59.972656 8.121094 59.050781 C 8.648438 57.296875 9.152344 55.523438 9.632812 53.734375 C 10.386719 51.222656 11.207031 48.734375 12.089844 46.265625 C 13.730469 41.742188 15.871094 37.480469 18.511719 33.480469 C 25.113281 24.050781 33.027344 22.765625 42.25 29.621094 C 47.824219 34.320312 52.398438 39.828125 55.972656 46.140625 Z M 55.972656 46.140625 "/>
<use xlink:href="#surface20" mask="url(#mask5)"/>
<use xlink:href="#surface23" mask="url(#mask6)"/>
<path style=" stroke:none;fill-rule:evenodd;fill:rgb(34.117647%,46.27451%,61.568627%);fill-opacity:1;" d="M 8.121094 59.050781 C 8.007812 59.972656 7.796875 60.859375 7.492188 61.707031 C 7.605469 60.785156 7.816406 59.898438 8.121094 59.050781 Z M 8.121094 59.050781 "/>
</g>
</svg>
