<?xml version="1.0" encoding="UTF-8"?>
<svg xmlns="http://www.w3.org/2000/svg" xmlns:xlink="http://www.w3.org/1999/xlink" width="175px" height="34px" viewBox="0 0 46 34" version="1.1">
<defs>
<filter id="alpha" filterUnits="objectBoundingBox" x="0%" y="0%" width="100%" height="100%">
  <feColorMatrix type="matrix" in="SourceGraphic" values="0 0 0 0 1 0 0 0 0 1 0 0 0 0 1 0 0 0 1 0"/>
</filter>
<mask id="mask0">
  <g filter="url(#alpha)">
<rect x="0" y="0" width="46" height="34" style="fill:rgb(0%,0%,0%);fill-opacity:0.996078;stroke:none;"/>
  </g>
</mask>
<clipPath id="clip1">
  <rect x="0" y="0" width="46" height="34"/>
</clipPath>
<g id="surface5" clip-path="url(#clip1)">
<path style=" stroke:none;fill-rule:evenodd;fill:rgb(8.627451%,52.156863%,50.196078%);fill-opacity:1;" d="M 24.9375 -0.0234375 C 27.804688 -0.0234375 30.671875 -0.0234375 33.542969 -0.0234375 C 33.300781 1.011719 33.058594 2.042969 32.816406 3.078125 C 32.816406 3.089844 32.816406 3.105469 32.816406 3.121094 C 32.789062 3.121094 32.773438 3.132812 32.773438 3.164062 C 32.210938 3.953125 31.53125 4.621094 30.730469 5.164062 C 29.390625 5.847656 28.011719 5.925781 26.597656 5.402344 C 26.320312 5.269531 26.289062 5.304688 26.515625 5.507812 C 27.980469 6.824219 29.640625 7.804688 31.496094 8.457031 C 31.304688 9.371094 31.089844 10.273438 30.859375 11.167969 C 30.324219 13.34375 29.621094 15.464844 28.75 17.539062 C 28.097656 19.097656 27.199219 20.480469 26.046875 21.691406 C 24.242188 23.296875 22.296875 23.480469 20.210938 22.25 C 18.996094 21.46875 17.921875 20.515625 16.996094 19.386719 C 16.015625 18.199219 15.132812 16.933594 14.355469 15.601562 C 14.320312 15.554688 14.285156 15.554688 14.246094 15.601562 C 14.246094 15.542969 14.246094 15.488281 14.246094 15.429688 C 14.289062 15.425781 14.324219 15.441406 14.355469 15.472656 C 14.835938 16.289062 15.453125 16.984375 16.207031 17.558594 C 16.863281 17.988281 17.515625 17.988281 18.164062 17.558594 C 18.65625 17.171875 19.027344 16.691406 19.273438 16.117188 C 19.496094 15.738281 19.6875 15.335938 19.847656 14.914062 C 20.050781 14.328125 20.234375 13.742188 20.402344 13.148438 C 21.125 10.136719 21.851562 7.121094 22.574219 4.109375 C 22.753906 3.15625 23.035156 2.238281 23.425781 1.355469 C 23.753906 0.6875 24.257812 0.230469 24.9375 -0.0234375 Z M 24.9375 -0.0234375 "/>
</g>
<mask id="mask1">
  <g filter="url(#alpha)">
<rect x="0" y="0" width="46" height="34" style="fill:rgb(0%,0%,0%);fill-opacity:0.996078;stroke:none;"/>
  </g>
</mask>
<clipPath id="clip2">
  <rect x="0" y="0" width="46" height="34"/>
</clipPath>
<g id="surface8" clip-path="url(#clip2)">
<path style=" stroke:none;fill-rule:evenodd;fill:rgb(67.058824%,67.45098%,68.627451%);fill-opacity:1;" d="M 36.4375 -0.0234375 C 39.617188 -0.0234375 42.796875 -0.0234375 45.980469 -0.0234375 C 45.980469 -0.0078125 45.980469 0.0078125 45.980469 0.0234375 C 44.53125 1.730469 43.082031 3.4375 41.632812 5.144531 C 41.726562 4.988281 41.804688 4.828125 41.867188 4.667969 C 40.335938 6.421875 38.414062 7.464844 36.097656 7.789062 C 32.589844 8.28125 29.394531 7.492188 26.515625 5.421875 C 26.539062 5.402344 26.566406 5.394531 26.597656 5.402344 C 28.011719 5.925781 29.390625 5.847656 30.730469 5.164062 C 31.53125 4.621094 32.210938 3.953125 32.773438 3.164062 C 32.804688 3.164062 32.816406 3.148438 32.816406 3.121094 C 32.816406 3.105469 32.816406 3.089844 32.816406 3.078125 C 33.34375 2.371094 33.863281 1.652344 34.371094 0.925781 C 34.949219 0.355469 35.636719 0.0429688 36.4375 -0.0234375 Z M 36.4375 -0.0234375 "/>
</g>
<mask id="mask2">
  <g filter="url(#alpha)">
<rect x="0" y="0" width="46" height="34" style="fill:rgb(0%,0%,0%);fill-opacity:0.996078;stroke:none;"/>
  </g>
</mask>
<clipPath id="clip3">
  <rect x="0" y="0" width="46" height="34"/>
</clipPath>
<g id="surface11" clip-path="url(#clip3)">
<path style=" stroke:none;fill-rule:evenodd;fill:rgb(95.294118%,64.313725%,10.980392%);fill-opacity:1;" d="M 45.980469 0.625 C 45.980469 10.9375 45.980469 21.253906 45.980469 31.566406 C 43.804688 31.574219 41.632812 31.566406 39.460938 31.546875 C 38.246094 31.234375 37.527344 30.453125 37.3125 29.203125 C 37.277344 22.5 37.28125 15.800781 37.332031 9.101562 C 38.375 8.703125 39.328125 8.152344 40.1875 7.445312 C 40.804688 6.847656 41.394531 6.222656 41.953125 5.574219 C 43.316406 3.933594 44.660156 2.285156 45.980469 0.625 Z M 45.980469 0.625 "/>
</g>
<mask id="mask3">
  <g filter="url(#alpha)">
<rect x="0" y="0" width="46" height="34" style="fill:rgb(0%,0%,0%);fill-opacity:0.364706;stroke:none;"/>
  </g>
</mask>
<clipPath id="clip4">
  <rect x="0" y="0" width="46" height="34"/>
</clipPath>
<g id="surface14" clip-path="url(#clip4)">
<path style=" stroke:none;fill-rule:evenodd;fill:rgb(14.509804%,60.784314%,81.960784%);fill-opacity:1;" d="M 9.648438 0.882812 C 9.035156 1.105469 8.515625 1.480469 8.09375 2 C 7.777344 2.425781 7.492188 2.867188 7.242188 3.335938 C 6.65625 4.539062 6.203125 5.804688 5.878906 7.121094 C 5.386719 9.128906 4.914062 11.136719 4.449219 13.148438 C 4.378906 13.378906 4.308594 13.605469 4.238281 13.835938 C 4.179688 13.851562 4.179688 13.867188 4.238281 13.878906 C 4.25 13.933594 4.234375 13.976562 4.195312 14.007812 C 4.167969 13.90625 4.15625 13.921875 4.152344 14.050781 C 4.050781 14.246094 3.957031 14.445312 3.875 14.65625 C 4.417969 12.242188 4.984375 9.832031 5.578125 7.425781 C 5.957031 5.863281 6.511719 4.371094 7.242188 2.949219 C 7.609375 2.261719 8.097656 1.679688 8.710938 1.203125 C 8.996094 1.015625 9.308594 0.90625 9.648438 0.882812 Z M 9.648438 0.882812 "/>
</g>
<mask id="mask4">
  <g filter="url(#alpha)">
<rect x="0" y="0" width="46" height="34" style="fill:rgb(0%,0%,0%);fill-opacity:0.980392;stroke:none;"/>
  </g>
</mask>
<clipPath id="clip5">
  <rect x="0" y="0" width="46" height="34"/>
</clipPath>
<g id="surface17" clip-path="url(#clip5)">
<path style=" stroke:none;fill-rule:evenodd;fill:rgb(47.45098%,47.45098%,47.843137%);fill-opacity:1;" d="M 41.632812 5.144531 C 39.445312 8.121094 36.519531 9.332031 32.859375 8.78125 C 32.398438 8.699219 31.945312 8.589844 31.496094 8.457031 C 29.640625 7.804688 27.980469 6.824219 26.515625 5.507812 C 26.289062 5.304688 26.320312 5.269531 26.597656 5.402344 C 26.566406 5.394531 26.539062 5.402344 26.515625 5.421875 C 29.394531 7.492188 32.589844 8.28125 36.097656 7.789062 C 38.414062 7.464844 40.335938 6.421875 41.867188 4.667969 C 41.804688 4.828125 41.726562 4.988281 41.632812 5.144531 Z M 41.632812 5.144531 "/>
</g>
<mask id="mask5">
  <g filter="url(#alpha)">
<rect x="0" y="0" width="46" height="34" style="fill:rgb(0%,0%,0%);fill-opacity:0.988235;stroke:none;"/>
  </g>
</mask>
<clipPath id="clip6">
  <rect x="0" y="0" width="46" height="34"/>
</clipPath>
<g id="surface20" clip-path="url(#clip6)">
<path style=" stroke:none;fill-rule:evenodd;fill:rgb(59.607843%,83.921569%,85.882353%);fill-opacity:1;" d="M 30.859375 11.167969 C 29.835938 15.546875 28.792969 19.921875 27.726562 24.296875 C 27.390625 25.628906 26.9375 26.921875 26.363281 28.167969 C 25.984375 28.984375 25.46875 29.695312 24.808594 30.296875 C 24.019531 30.871094 23.210938 30.898438 22.382812 30.386719 C 21.683594 29.824219 21.109375 29.15625 20.65625 28.382812 C 18.832031 24.839844 17.03125 21.28125 15.25 17.710938 C 14.890625 17.015625 14.558594 16.3125 14.246094 15.601562 C 14.285156 15.554688 14.320312 15.554688 14.355469 15.601562 C 15.132812 16.933594 16.015625 18.199219 16.996094 19.386719 C 17.921875 20.515625 18.996094 21.46875 20.210938 22.25 C 22.296875 23.480469 24.242188 23.296875 26.046875 21.691406 C 27.199219 20.480469 28.097656 19.097656 28.75 17.539062 C 29.621094 15.464844 30.324219 13.34375 30.859375 11.167969 Z M 30.859375 11.167969 "/>
</g>
<mask id="mask6">
  <g filter="url(#alpha)">
<rect x="0" y="0" width="46" height="34" style="fill:rgb(0%,0%,0%);fill-opacity:0.678431;stroke:none;"/>
  </g>
</mask>
<clipPath id="clip7">
  <rect x="0" y="0" width="46" height="34"/>
</clipPath>
<g id="surface23" clip-path="url(#clip7)">
<path style=" stroke:none;fill-rule:evenodd;fill:rgb(45.098039%,61.960784%,71.372549%);fill-opacity:1;" d="M 3.214844 18.140625 C 3.207031 18.195312 3.21875 18.238281 3.257812 18.269531 C 3.09375 18.878906 2.925781 19.480469 2.746094 20.078125 C 2.871094 19.417969 3.027344 18.773438 3.214844 18.140625 Z M 3.214844 18.140625 "/>
</g>
</defs>
<g id="surface1">
<use xlink:href="#surface5" mask="url(#mask0)"/>
<use xlink:href="#surface8" mask="url(#mask1)"/>
<use xlink:href="#surface11" mask="url(#mask2)"/>
<use xlink:href="#surface14" mask="url(#mask3)"/>
<path style=" stroke:none;fill-rule:evenodd;fill:rgb(42.352941%,73.333333%,84.705882%);fill-opacity:1;" d="M 9.648438 0.882812 C 10.023438 0.84375 10.378906 0.902344 10.710938 1.054688 C 10.667969 1.046875 10.625 1.054688 10.585938 1.074219 C 11.066406 1.347656 11.484375 1.699219 11.839844 2.128906 C 12.160156 2.546875 12.457031 2.976562 12.734375 3.421875 C 14.1875 6.214844 15.59375 9.027344 16.953125 11.855469 C 15.929688 10.496094 14.730469 9.328125 13.351562 8.347656 C 10.976562 6.828125 8.824219 7.09375 6.898438 9.144531 C 5.890625 10.355469 5.074219 11.6875 4.449219 13.148438 C 4.914062 11.136719 5.386719 9.128906 5.878906 7.121094 C 6.203125 5.804688 6.65625 4.539062 7.242188 3.335938 C 7.492188 2.867188 7.777344 2.425781 8.09375 2 C 8.515625 1.480469 9.035156 1.105469 9.648438 0.882812 Z M 9.648438 0.882812 "/>
<path style=" stroke:none;fill-rule:evenodd;fill:rgb(58.823529%,82.352941%,85.098039%);fill-opacity:1;" d="M 10.710938 1.054688 C 10.957031 1.15625 11.183594 1.292969 11.394531 1.464844 C 12.007812 2.042969 12.527344 2.695312 12.949219 3.421875 C 15.050781 7.582031 17.152344 11.742188 19.25 15.902344 C 19.273438 15.972656 19.28125 16.042969 19.273438 16.117188 C 19.207031 16.117188 19.160156 16.089844 19.125 16.03125 C 19.046875 15.921875 18.984375 15.808594 18.933594 15.6875 C 17.722656 13.542969 16.175781 11.667969 14.289062 10.070312 C 11.171875 7.742188 8.496094 8.179688 6.261719 11.382812 C 5.367188 12.742188 4.644531 14.191406 4.089844 15.730469 C 3.789062 16.570312 3.515625 17.417969 3.257812 18.269531 C 3.21875 18.238281 3.207031 18.195312 3.214844 18.140625 C 3.519531 16.777344 3.832031 15.414062 4.152344 14.050781 C 4.179688 14.050781 4.195312 14.039062 4.195312 14.007812 C 4.234375 13.976562 4.25 13.933594 4.238281 13.878906 C 4.238281 13.867188 4.238281 13.851562 4.238281 13.835938 C 4.308594 13.605469 4.378906 13.378906 4.449219 13.148438 C 5.074219 11.6875 5.890625 10.355469 6.898438 9.144531 C 8.824219 7.09375 10.976562 6.828125 13.351562 8.347656 C 14.730469 9.328125 15.929688 10.496094 16.953125 11.855469 C 15.59375 9.027344 14.1875 6.214844 12.734375 3.421875 C 12.457031 2.976562 12.160156 2.546875 11.839844 2.128906 C 11.484375 1.699219 11.066406 1.347656 10.585938 1.074219 C 10.625 1.054688 10.667969 1.046875 10.710938 1.054688 Z M 10.710938 1.054688 "/>
<use xlink:href="#surface17" mask="url(#mask4)"/>
<path style=" stroke:none;fill-rule:evenodd;fill:rgb(15.686275%,20.784314%,54.117647%);fill-opacity:1;" d="M 18.933594 15.6875 C 18.535156 15.121094 18.066406 14.609375 17.527344 14.160156 C 17.164062 13.875 16.75 13.710938 16.292969 13.664062 C 15.8125 13.71875 15.402344 13.914062 15.054688 14.246094 C 14.71875 14.59375 14.449219 14.988281 14.246094 15.429688 C 13.773438 16.3125 13.410156 17.246094 13.160156 18.226562 C 12.296875 21.8125 11.429688 25.398438 10.5625 28.984375 C 10.355469 29.875 9.921875 30.628906 9.265625 31.246094 C 9.085938 31.386719 8.886719 31.488281 8.667969 31.546875 C 5.769531 31.566406 2.875 31.574219 -0.0195312 31.566406 C -0.0195312 31.511719 -0.0195312 31.453125 -0.0195312 31.394531 C 0.832031 27.925781 1.683594 24.453125 2.535156 20.980469 C 2.636719 20.691406 2.707031 20.390625 2.746094 20.078125 C 2.925781 19.480469 3.09375 18.878906 3.257812 18.269531 C 3.515625 17.417969 3.789062 16.570312 4.089844 15.730469 C 4.644531 14.191406 5.367188 12.742188 6.261719 11.382812 C 8.496094 8.179688 11.171875 7.742188 14.289062 10.070312 C 16.175781 11.667969 17.722656 13.542969 18.933594 15.6875 Z M 18.933594 15.6875 "/>
<use xlink:href="#surface20" mask="url(#mask5)"/>
<use xlink:href="#surface23" mask="url(#mask6)"/>
<path style=" stroke:none;fill-rule:evenodd;fill:rgb(34.117647%,46.27451%,61.568627%);fill-opacity:1;" d="M 2.746094 20.078125 C 2.707031 20.390625 2.636719 20.691406 2.535156 20.980469 C 2.574219 20.667969 2.644531 20.367188 2.746094 20.078125 Z M 2.746094 20.078125 "/>
</g>
</svg>
