<?xml version="1.0" encoding="UTF-8"?>
<svg xmlns="http://www.w3.org/2000/svg" xmlns:xlink="http://www.w3.org/1999/xlink" width="110px" height="63px" viewBox="0 0 109 63" version="1.1">
<g id="surface1">
<path style=" stroke:none;fill-rule:nonzero;fill:rgb(0%,0%,0%);fill-opacity:1;" d="M 86.503906 13.3125 C 85.296875 15.519531 84.308594 17.390625 84.285156 17.46875 C 84.253906 17.574219 84.484375 17.609375 85.265625 17.609375 L 86.289062 17.609375 L 86.289062 26.960938 C 86.289062 32.101562 86.269531 36.3125 86.25 36.3125 C 86.214844 36.3125 85.074219 34.96875 83.699219 33.324219 C 82.335938 31.695312 79.242188 27.988281 76.804688 25.101562 L 72.40625 19.851562 L 71.632812 19.816406 L 70.839844 19.78125 L 70.839844 48.671875 L 76.378906 48.671875 L 76.398438 41.027344 L 76.433594 33.378906 L 77.871094 35.035156 C 78.660156 35.941406 81.039062 38.660156 83.148438 41.074219 C 85.257812 43.488281 87.734375 46.332031 88.671875 47.394531 L 90.359375 49.328125 L 91.828125 49.328125 L 91.828125 17.609375 L 92.625 17.609375 C 93.207031 17.609375 93.425781 17.566406 93.425781 17.46875 C 93.410156 17.402344 92.445312 15.542969 91.261719 13.34375 C 89.65625 10.382812 89.046875 9.339844 88.886719 9.320312 C 88.71875 9.296875 88.320312 9.9375 86.503906 13.3125 Z M 86.503906 13.3125 "/>
<path style=" stroke:none;fill-rule:nonzero;fill:rgb(0%,0%,0%);fill-opacity:1;" d="M 17.246094 20.070312 C 11.230469 21.035156 7.054688 25.191406 5.835938 31.410156 C 5.519531 33.058594 5.496094 35.734375 5.796875 37.351562 C 6.175781 39.457031 6.949219 41.4375 7.988281 43.050781 C 8.714844 44.152344 10.363281 45.894531 11.367188 46.605469 C 14.742188 48.996094 19.5625 49.742188 24.042969 48.5625 C 30.09375 46.953125 34.011719 41.4375 34.027344 34.507812 C 34.027344 32.613281 33.8125 31.136719 33.292969 29.5 C 31.648438 24.339844 27.644531 20.878906 22.339844 20.085938 C 20.984375 19.875 18.523438 19.875 17.246094 20.070312 Z M 21.039062 25.816406 C 24.398438 26.308594 26.863281 28.558594 27.75 31.9375 C 27.988281 32.867188 28.082031 35.1875 27.90625 36.171875 C 27.503906 38.566406 26.257812 40.628906 24.46875 41.867188 C 22.371094 43.300781 19.195312 43.617188 16.660156 42.65625 C 15.082031 42.042969 13.679688 40.820312 12.785156 39.265625 C 11.25 36.628906 11.164062 32.867188 12.558594 30.105469 C 14.164062 26.941406 17.425781 25.289062 21.039062 25.816406 Z M 21.039062 25.816406 "/>
<path style=" stroke:none;fill-rule:nonzero;fill:rgb(0%,0%,0%);fill-opacity:1;" d="M 39.308594 34.289062 L 39.308594 48.671875 L 44.847656 48.671875 L 44.847656 40.839844 C 44.847656 36.53125 44.890625 33.03125 44.933594 33.058594 C 45.019531 33.085938 45.96875 34.082031 49.953125 38.378906 L 51.921875 40.488281 L 53.15625 39.1875 C 55.152344 37.089844 58.527344 33.457031 58.675781 33.238281 C 58.746094 33.121094 58.859375 33.03125 58.917969 33.03125 C 58.972656 33.03125 59.019531 36.023438 59.019531 40.851562 L 59.019531 48.671875 L 64.558594 48.671875 L 64.558594 19.910156 L 62.785156 19.910156 L 59.324219 23.867188 C 57.421875 26.054688 55 28.832031 53.945312 30.046875 C 52.902344 31.257812 52.003906 32.253906 51.964844 32.253906 C 51.898438 32.261719 51.019531 31.269531 45.96875 25.484375 C 45.148438 24.542969 43.710938 22.910156 42.785156 21.84375 L 41.089844 19.910156 L 39.308594 19.910156 Z M 39.308594 34.289062 "/>
<path style=" stroke:none;fill-rule:nonzero;fill:rgb(0%,0%,0%);fill-opacity:1;" d="M 98.003906 34.507812 L 98.003906 48.671875 L 103.546875 48.671875 L 103.546875 20.34375 L 98.003906 20.34375 Z M 98.003906 34.507812 "/>
</g>
</svg>
