<?xml version="1.0" encoding="UTF-8"?>
<svg xmlns="http://www.w3.org/2000/svg" xmlns:xlink="http://www.w3.org/1999/xlink" width="85px" height="49px" viewBox="0 0 85 49" version="1.1">
<g id="surface1">
<path style=" stroke:none;fill-rule:nonzero;fill:rgb(0%,0%,0%);fill-opacity:1;" d="M 67.457031 10.355469 C 66.515625 12.070312 65.746094 13.527344 65.726562 13.585938 C 65.703125 13.667969 65.882812 13.695312 66.492188 13.695312 L 67.289062 13.695312 L 67.289062 20.96875 C 67.289062 24.96875 67.273438 28.242188 67.257812 28.242188 C 67.230469 28.242188 66.34375 27.199219 65.269531 25.917969 C 64.207031 24.652344 61.792969 21.769531 59.894531 19.523438 L 56.464844 15.441406 L 55.859375 15.414062 L 55.242188 15.386719 L 55.242188 37.855469 L 59.5625 37.855469 L 59.578125 31.910156 L 59.605469 25.960938 L 60.726562 27.25 C 61.339844 27.953125 63.195312 30.070312 64.839844 31.945312 C 66.484375 33.824219 68.417969 36.035156 69.148438 36.863281 L 70.464844 38.367188 L 71.609375 38.367188 L 71.609375 13.695312 L 72.230469 13.695312 C 72.683594 13.695312 72.855469 13.664062 72.855469 13.585938 C 72.84375 13.535156 72.089844 12.089844 71.167969 10.378906 C 69.914062 8.074219 69.441406 7.265625 69.316406 7.25 C 69.183594 7.230469 68.875 7.730469 67.457031 10.355469 Z M 67.457031 10.355469 "/>
<path style=" stroke:none;fill-rule:nonzero;fill:rgb(0%,0%,0%);fill-opacity:1;" d="M 13.449219 15.609375 C 8.757812 16.359375 5.5 19.59375 4.550781 24.429688 C 4.304688 25.710938 4.285156 27.792969 4.519531 29.050781 C 4.816406 30.6875 5.417969 32.230469 6.230469 33.484375 C 6.796875 34.339844 8.082031 35.695312 8.863281 36.25 C 11.496094 38.109375 15.253906 38.6875 18.75 37.769531 C 23.46875 36.519531 26.523438 32.230469 26.535156 26.839844 C 26.535156 25.367188 26.367188 24.21875 25.960938 22.945312 C 24.679688 18.929688 21.558594 16.238281 17.421875 15.621094 C 16.363281 15.457031 14.445312 15.457031 13.449219 15.609375 Z M 16.40625 20.078125 C 19.027344 20.460938 20.949219 22.210938 21.640625 24.839844 C 21.824219 25.5625 21.898438 27.367188 21.761719 28.132812 C 21.449219 29.996094 20.476562 31.601562 19.082031 32.5625 C 17.445312 33.679688 14.96875 33.925781 12.992188 33.175781 C 11.761719 32.699219 10.667969 31.75 9.96875 30.539062 C 8.773438 28.488281 8.707031 25.5625 9.792969 23.414062 C 11.046875 20.953125 13.589844 19.667969 16.40625 20.078125 Z M 16.40625 20.078125 "/>
<path style=" stroke:none;fill-rule:nonzero;fill:rgb(0%,0%,0%);fill-opacity:1;" d="M 30.652344 26.667969 L 30.652344 37.855469 L 34.972656 37.855469 L 34.972656 31.765625 C 34.972656 28.414062 35.007812 25.691406 35.039062 25.710938 C 35.105469 25.734375 35.847656 26.507812 38.953125 29.851562 L 40.488281 31.492188 L 41.453125 30.480469 C 43.007812 28.847656 45.640625 26.023438 45.757812 25.851562 C 45.8125 25.761719 45.898438 25.691406 45.945312 25.691406 C 45.988281 25.691406 46.023438 28.019531 46.023438 31.773438 L 46.023438 37.855469 L 50.34375 37.855469 L 50.34375 15.484375 L 48.960938 15.484375 L 46.261719 18.5625 C 44.777344 20.265625 42.890625 22.425781 42.066406 23.371094 C 41.253906 24.3125 40.554688 25.085938 40.523438 25.085938 C 40.472656 25.09375 39.785156 24.320312 35.847656 19.820312 C 35.207031 19.089844 34.085938 17.820312 33.363281 16.988281 L 32.042969 15.484375 L 30.652344 15.484375 Z M 30.652344 26.667969 "/>
<path style=" stroke:none;fill-rule:nonzero;fill:rgb(0%,0%,0%);fill-opacity:1;" d="M 76.425781 26.839844 L 76.425781 37.855469 L 80.746094 37.855469 L 80.746094 15.824219 L 76.425781 15.824219 Z M 76.425781 26.839844 "/>
</g>
</svg>
